<svg xmlns="http://www.w3.org/2000/svg" viewBox="0 0 500 500"><g id="freepik--background-simple--inject-22"><path d="M183.69,390q3.51,0,7.17,0c6.08-.12,11.69-.51,16.93-1.11V274.67h-24.1Z" style="fill:#5BA5A5"></path><path d="M228.27,385a119.07,119.07,0,0,0,24.09-9.38v-101H228.27Z" style="fill:#5BA5A5"></path><path d="M272.84,363.22c8-5.17,15.38-9.67,24.1-11.92V274.67h-24.1Z" style="fill:#5BA5A5"></path><path d="M317.42,350.23c8.62,1,16.48,3.29,24.1,5.76V274.67h-24.1Z" style="fill:#5BA5A5"></path><path d="M69.5,311.08q2.1,5.75,4.55,11.24V274.67H61.32A151.69,151.69,0,0,0,69.5,311.08Z" style="fill:#5BA5A5"></path><path d="M94.53,354.79a96.75,96.75,0,0,0,24.1,19.59V274.67H94.53Z" style="fill:#5BA5A5"></path><path d="M139.11,383.35a135.15,135.15,0,0,0,24.1,5.25V274.67h-24.1Z" style="fill:#5BA5A5"></path><path d="M362,362.17a61.7,61.7,0,0,0,24.1,1.16V274.67H362Z" style="fill:#5BA5A5"></path><path d="M420.52,140.63a194.86,194.86,0,0,0-24.87-38.14C354.7,54,272,69.12,240.16,94.15s-33.37,59.92-60.68,69-48.54-8.34-84.95,13.66c-24.64,14.89-35,50.28-34,85.71H443.89c.19-2.89.35-5.72.46-8.46A230.31,230.31,0,0,0,420.52,140.63ZM96.59,214.32,92,211.91l-4.59,2.41.88-5.11-3.72-3.62,5.13-.75,2.3-4.65,2.3,4.65,5.13.75-3.72,3.62Zm104.79,10.09L194.76,233,192,222.5l-10.17-3.65,9.09-5.86.33-10.8,8.37,6.83L210,206l-3.91,10.08,6.08,8.93Zm51.2-66.69-.86,6.24-4.43-4.48-6.2,1.1L244,155l-3-5.56,6.22,1,4.37-4.54,1,6.22,5.66,2.76ZM276,253.91l-5-2.64-5,2.64,1-5.59-4.07-4,5.62-.82,2.51-5.08,2.51,5.08,5.62.82-4.07,4ZM345.63,89.62,343,88.24l-2.63,1.38.5-2.93-2.12-2.07,2.94-.43L343,81.53l1.31,2.66,2.94.43-2.12,2.07Zm78,138.53L417,224.66l-6.65,3.49,1.27-7.4-5.38-5.25,7.43-1.08,3.33-6.73,3.33,6.73,7.43,1.08-5.38,5.25Z" style="fill:#5BA5A5"></path><path d="M406.58,356.24c1.15-.6,2.31-1.24,3.49-1.93,8.95-5.21,15.63-14.58,20.61-26.09V274.67h-24.1Z" style="fill:#5BA5A5"></path><g style="opacity:0.7000000000000001"><path d="M183.69,390q3.51,0,7.17,0c6.08-.12,11.69-.51,16.93-1.11V274.67h-24.1Z" style="fill:#fff"></path><path d="M228.27,385a119.07,119.07,0,0,0,24.09-9.38v-101H228.27Z" style="fill:#fff"></path><path d="M272.84,363.22c8-5.17,15.38-9.67,24.1-11.92V274.67h-24.1Z" style="fill:#fff"></path><path d="M317.42,350.23c8.62,1,16.48,3.29,24.1,5.76V274.67h-24.1Z" style="fill:#fff"></path><path d="M69.5,311.08q2.1,5.75,4.55,11.24V274.67H61.32A151.69,151.69,0,0,0,69.5,311.08Z" style="fill:#fff"></path><path d="M94.53,354.79a96.75,96.75,0,0,0,24.1,19.59V274.67H94.53Z" style="fill:#fff"></path><path d="M139.11,383.35a135.15,135.15,0,0,0,24.1,5.25V274.67h-24.1Z" style="fill:#fff"></path><path d="M362,362.17a61.7,61.7,0,0,0,24.1,1.16V274.67H362Z" style="fill:#fff"></path><path d="M420.52,140.63a194.86,194.86,0,0,0-24.87-38.14C354.7,54,272,69.12,240.16,94.15s-33.37,59.92-60.68,69-48.54-8.34-84.95,13.66c-24.64,14.89-35,50.28-34,85.71H443.89c.19-2.89.35-5.72.46-8.46A230.31,230.31,0,0,0,420.52,140.63ZM96.59,214.32,92,211.91l-4.59,2.41.88-5.11-3.72-3.62,5.13-.75,2.3-4.65,2.3,4.65,5.13.75-3.72,3.62Zm104.79,10.09L194.76,233,192,222.5l-10.17-3.65,9.09-5.86.33-10.8,8.37,6.83L210,206l-3.91,10.08,6.08,8.93Zm51.2-66.69-.86,6.24-4.43-4.48-6.2,1.1L244,155l-3-5.56,6.22,1,4.37-4.54,1,6.22,5.66,2.76ZM276,253.91l-5-2.64-5,2.64,1-5.59-4.07-4,5.62-.82,2.51-5.08,2.51,5.08,5.62.82-4.07,4ZM345.63,89.62,343,88.24l-2.63,1.38.5-2.93-2.12-2.07,2.94-.43L343,81.53l1.31,2.66,2.94.43-2.12,2.07Zm78,138.53L417,224.66l-6.65,3.49,1.27-7.4-5.38-5.25,7.43-1.08,3.33-6.73,3.33,6.73,7.43,1.08-5.38,5.25Z" style="fill:#fff"></path><path d="M406.58,356.24c1.15-.6,2.31-1.24,3.49-1.93,8.95-5.21,15.63-14.58,20.61-26.09V274.67h-24.1Z" style="fill:#fff"></path></g></g><g id="freepik--Shadow--inject-22"><ellipse cx="335.35" cy="420.3" rx="54.99" ry="8.34" style="fill:#5BA5A5"></ellipse><ellipse cx="335.35" cy="420.3" rx="54.99" ry="8.34" style="fill:#fff;opacity:0.5"></ellipse><ellipse cx="167.73" cy="408.17" rx="41.34" ry="8.34" style="fill:#5BA5A5"></ellipse><ellipse cx="167.73" cy="408.17" rx="41.34" ry="8.34" style="fill:#fff;opacity:0.5"></ellipse></g><g id="freepik--Ribbon--inject-22"><path d="M132.33,223l-.75,70.94s-3,1.51-11.32,1.51-11.32-1.51-11.32-1.51l3-28.68S101.39,263,101.39,260s23.39-86,23.39-86S136.86,195.07,132.33,223Z" style="fill:#5BA5A5;stroke:#2e353a;stroke-miterlimit:10"></path><line x1="111.95" y1="265.25" x2="121.73" y2="220.05" style="fill:none;stroke:#2e353a;stroke-miterlimit:10"></line><path d="M115.73,173.94s13.58,18.11,15.09,25.66S132.33,223,132.33,223a123.8,123.8,0,0,0,8.3-34.71c1.51-18.87-13.58-28.68-13.58-28.68Z" style="fill:#2e353a;stroke:#2e353a;stroke-miterlimit:10"></path><path d="M370.92,223l.75,70.94s3,1.51,11.32,1.51,11.32-1.51,11.32-1.51l-3-28.68S401.86,263,401.86,260s-23.4-86-23.4-86S366.39,195.07,370.92,223Z" style="fill:#5BA5A5;stroke:#2e353a;stroke-miterlimit:10"></path><line x1="391.29" y1="265.25" x2="382.22" y2="212.69" style="fill:none;stroke:#2e353a;stroke-miterlimit:10"></line><path d="M387.52,173.94s-13.59,18.11-15.1,25.66-1.5,23.39-1.5,23.39a123.61,123.61,0,0,1-8.31-34.71c-1.51-18.87,13.59-28.68,13.59-28.68Z" style="fill:#2e353a;stroke:#2e353a;stroke-miterlimit:10"></path><path d="M387.41,173.94a266.85,266.85,0,0,0-271.68,0L91.91,133.66c-1.71-2.86-.1-7,3.65-9.06a319.7,319.7,0,0,1,312,0c3.74,2.09,5.36,6.2,3.65,9.06Z" style="fill:#5BA5A5"></path><path d="M387.41,173.94a266.85,266.85,0,0,0-271.68,0L91.91,133.66c-1.71-2.86-.1-7,3.65-9.06a319.7,319.7,0,0,1,312,0c3.74,2.09,5.36,6.2,3.65,9.06Z" style="fill:none;stroke:#2e353a;stroke-miterlimit:10"></path><text transform="translate(138.94 147.69) rotate(-17.76)" style="font-size:43.82455062866211px;fill:#2e353a;font-family:Nunito-Black, Nunito;font-weight:800">W</text><text transform="matrix(0.98, -0.21, 0.21, 0.98, 183.03, 134.02)" style="font-size:43.82455062866211px;fill:#2e353a;font-family:Nunito-Black, Nunito;font-weight:800">E</text><text transform="matrix(0.99, -0.13, 0.13, 0.99, 208.59, 128.51)" style="font-size:43.82455062866211px;fill:#2e353a;font-family:Nunito-Black, Nunito;font-weight:800">L</text><text transform="translate(233.1 125.05) rotate(-2.05)" style="font-size:43.82455062866211px;fill:#2e353a;font-family:Nunito-Black, Nunito;font-weight:800">C</text><text transform="matrix(1, 0.09, -0.09, 1, 262.17, 123.79)" style="font-size:43.82455062866211px;fill:#2e353a;font-family:Nunito-Black, Nunito;font-weight:800">O</text><text transform="translate(296.01 126.64) rotate(13.58)" style="font-size:43.82455062866211px;fill:#2e353a;font-family:Nunito-Black, Nunito;font-weight:800">M</text><text transform="translate(336.7 136.92) rotate(21.16)" style="font-size:43.82455062866211px;fill:#2e353a;font-family:Nunito-Black, Nunito;font-weight:800">E</text></g><g id="freepik--Character--inject-22"><path d="M338.18,220.6s-12.72-9.4-18.83-14S302.77,188.8,300.15,183a91,91,0,0,0-4.36-8.73S297,168.44,297,167s-1.17-3.34-1.91-4.56c-.37-.61-3-4.1-3-1.44,0,2.08,1.25,3.12,1.25,4.37h0a10.21,10.21,0,0,1-4-4c-1.46-2.7-2.08-3.75-2.92-3.12-1.49,1.12.42,4,.42,4s-.42-4-2.5-3.34c-1.2.36.42,3.75,1.25,5.21s-.42-1-.21,1.46c.15,1.83,2.24,6.33,4.17,8.54.7.81,2.33.56,2.5.84.62,1,7.29,16.46,11.87,24.17s7.3,10,11.05,13.75,8.75,10.21,13.12,13.33,6.67,1.88,9.17-.21S340.13,222.72,338.18,220.6Z" style="fill:#fff;stroke:#2e353a;stroke-linecap:round;stroke-linejoin:round"></path><path d="M293.27,165.36s-1.88,3.55-1,5" style="fill:none;stroke:#2e353a;stroke-linecap:round;stroke-linejoin:round"></path><line x1="286.81" y1="162.24" x2="288.48" y2="165.36" style="fill:none;stroke:#2e353a;stroke-linecap:round;stroke-linejoin:round"></line><path d="M288.68,172.45a35.92,35.92,0,0,1-3.75-5.84c-.83-2.08-.2-6.66,1.05-5.83s.83,5.42.83,5.42l2.5,2.91" style="fill:#fff;stroke:#2e353a;stroke-linecap:round;stroke-linejoin:round"></path><path d="M340.87,194.62s-6.39-2.33-5.23-10.47,8.14-4.07,8.14-4.07-7-9.31,7.27-11.34,24.73,10.76,28.22,25-18.62,15.7-15.42,26.47,15.71,23,13.67,37.81-22.39,23-31.7,15.12S332.73,253.08,338,242s8.14-24.14,9.59-30S340.87,194.62,340.87,194.62Z" style="fill:#2e353a;stroke:#2e353a;stroke-linecap:round;stroke-linejoin:round"></path><path d="M363.75,205.5C355,202,350.5,187.75,350.5,179.75s11.25-4,11.25-4-11,2-5.5,12.75,15.25,14,20.25,10.75" style="fill:none;stroke:#fff;stroke-linecap:round;stroke-linejoin:round;stroke-width:0.75px"></path><path d="M362,213.25s-7.75,2.5-5.5,12.25S376,247.5,371,260s-13.75,17.5-24.25,13.75" style="fill:none;stroke:#fff;stroke-linecap:round;stroke-linejoin:round;stroke-width:0.75px"></path><path d="M358.25,215.25s-8.5,3.5-9.5,16,9.25,23.25,4.5,29.5-12.5,5.5-15,1.75" style="fill:none;stroke:#fff;stroke-linecap:round;stroke-linejoin:round;stroke-width:0.75px"></path><path d="M338.84,208.29s.87,3.2-2,8.15-4.36,6.1-4.36,6.1l10.47-.87,6.69-12.22S339.42,210.33,338.84,208.29Z" style="fill:#fff;stroke:#2e353a;stroke-linecap:round;stroke-linejoin:round"></path><path d="M349.31,181.24s-10.18,9.31-12.22,17.45.58,13.38,4.37,13.38,11.63-3.2,11.63-3.2,2.33,2,4.65.88a4.14,4.14,0,0,0,2.33-3.49S344.07,190.55,349.31,181.24Z" style="fill:#fff;stroke:#2e353a;stroke-linecap:round;stroke-linejoin:round"></path><path d="M345,195.21c-.7.89-1.54,1.39-1.89,1.12s-.07-1.21.63-2.1,1.54-1.39,1.88-1.12S345.69,194.32,345,195.21Z" style="fill:#2e353a"></path><path d="M349.84,200.28c-.69.9-1.54,1.4-1.89,1.13s-.06-1.21.63-2.1,1.54-1.4,1.89-1.13S350.53,199.39,349.84,200.28Z" style="fill:#2e353a"></path><path d="M344.54,197.11a18.93,18.93,0,0,0-3.41,1.6c-.91.68.68,1.59.68,1.59" style="fill:none;stroke:#2e353a;stroke-linecap:round;stroke-linejoin:round;stroke-width:0.75px"></path><path d="M339.08,202.57a3.49,3.49,0,0,0,3.19,2.73,5.83,5.83,0,0,0,4.09-.91" style="fill:none;stroke:#2e353a;stroke-linecap:round;stroke-linejoin:round;stroke-width:0.75px"></path><path d="M344.77,189.38a2.79,2.79,0,0,1,3.18,2.28" style="fill:none;stroke:#2e353a;stroke-linecap:round;stroke-linejoin:round;stroke-width:0.75px"></path><path d="M350,195.07s3.86,1.36,2.73,4.32" style="fill:none;stroke:#2e353a;stroke-linecap:round;stroke-linejoin:round;stroke-width:0.75px"></path><path d="M311.84,407.19s-5.38,3.59-7.18,4.48-9.41,2.24-9.64,4.26,3.81,3.14,8.3,3.14,9.86,0,12.55.45,4.49,1.34,5.61-1.57-.68-10.54-.68-10.54S316.1,409.21,311.84,407.19Z" style="fill:#5BA5A5;stroke:#2e353a;stroke-linecap:round;stroke-linejoin:round"></path><path d="M313.85,327.38s-3.13,14.57-3.13,19.28,1.79,35.2,2.24,43.71a80.31,80.31,0,0,1-1.12,16.82s3.81,1.79,5.38,1.79,3.58-1.57,3.58-1.57,4.49-19.73,4.49-30.26.89-16.59,0-23.32-4-19.05-2.92-23.54S317.22,320.65,313.85,327.38Z" style="fill:#2e353a;stroke:#2e353a;stroke-linecap:round;stroke-linejoin:round"></path><path d="M313.82,263S310,288.86,310,308.05s8.15,42.18,10.18,45.38,19.78,35.19,23.85,41.88a90.79,90.79,0,0,1,7.12,15.94,21.94,21.94,0,0,0,4.36.87c1.46,0,3.49-1.74,3.49-1.74s-9.44-36.89-13.22-46.48S334.18,346.74,332.15,343s-2.91-18.33-2.91-18.33,11.92-18.9,14-29.08S339.71,274,337.38,270a78.64,78.64,0,0,1-4.07-8.43S321.1,268.79,313.82,263Z" style="fill:#2e353a;stroke:#2e353a;stroke-linecap:round;stroke-linejoin:round"></path><path d="M335.93,252.5s7.27-22.39,9-27.63-.88-7.27-8.73-6.4-21.52,7-22.1,13.67,2,10.47,2,13.67S311.5,263,315,265.88s14.54,2,17.74-2S335.93,252.5,335.93,252.5Z" style="fill:#5BA5A5;stroke:#2e353a;stroke-linecap:round;stroke-linejoin:round"></path><path d="M338.18,220.6A15.43,15.43,0,0,1,335.64,231c-3.49,5.52-11.34,3.49-10.76-2.62S332.86,217.2,338.18,220.6Z" style="fill:#fff;stroke:#2e353a;stroke-linecap:round;stroke-linejoin:round"></path><path d="M333.22,229.26a6.44,6.44,0,0,0,5-8.66,3.71,3.71,0,0,0-2.83-2.42c-5-.87-26.76.87-32.29.29s-26.46-13.38-32-18.32-7.56-7.56-7.56-9.6-1.46-6.69-2.62-8.14-3.2-4.37-3.2-4.37-2,0-1.74,1.17a24.92,24.92,0,0,0,1.74,3.78s-5.82-3.49-7.27-5a1.78,1.78,0,0,0-2.62-.29l3.2,3.49s-.29,2.33,2,6.11a27,27,0,0,0,6.4,6.69s11.63,13.67,20.36,21.23,16.86,12.22,24.14,13.38C310.35,229.68,320.37,231.61,333.22,229.26Z" style="fill:#fff;stroke:#2e353a;stroke-linecap:round;stroke-linejoin:round"></path><path d="M351.19,411.25s-4.6,4.91-7.74,6.92-7.18,3.37-6.5,5.16,9,1.57,13,1.34,12.1-4,13.45-4.93-4.36-9.36-4.36-9.36S354.67,412.84,351.19,411.25Z" style="fill:#5BA5A5;stroke:#2e353a;stroke-linecap:round;stroke-linejoin:round"></path><path d="M350,424.67c4-.22,12.1-4,13.45-4.93.37-.25.19-1.09-.25-2.16a63.81,63.81,0,0,1-14.32,5.08c-6.56,1.4-10.28.74-11.95.21a1.26,1.26,0,0,0,.07.46C337.62,425.12,345.91,424.9,350,424.67Z" style="fill:#2e353a;stroke:#2e353a;stroke-linecap:round;stroke-linejoin:round"></path><path d="M321.48,418a6.37,6.37,0,0,0,.33-1.84c-1.78,1.44-3.07.76-5.94.94-3.59.23-4.93.23-12.33.23a22.92,22.92,0,0,1-8.5-1.41.14.14,0,0,1,0,.06c-.22,2,3.81,3.14,8.3,3.14s9.86,0,12.55.45S320.36,420.86,321.48,418Z" style="fill:#2e353a;stroke:#2e353a;stroke-linecap:round;stroke-linejoin:round"></path><path d="M329.24,324.63s.83-13.84,2.36-16.58,5.17-6.39,7.6-8.52" style="fill:none;stroke:#fff;stroke-linecap:round;stroke-linejoin:round;stroke-width:0.75px"></path></g></svg>